<?xml version="1.0" encoding="iso-8859-1"?>
<!-- Generator: Adobe Illustrator 19.0.0, SVG Export Plug-In . SVG Version: 6.00 Build 0)  -->
<svg version="1.1" id="Capa_1" xmlns="http://www.w3.org/2000/svg" xmlns:xlink="http://www.w3.org/1999/xlink" x="0px" y="0px"
	 viewBox="0 0 511.998 511.998" style="enable-background:new 0 0 511.998 511.998;" xml:space="preserve">
<g>
	<g>
		<path d="M464.023,106.725c-0.025-0.036-0.051-0.071-0.077-0.107c-1.071-1.484-2.158-2.96-3.263-4.424
			c-0.21-0.279-0.424-0.556-0.636-0.834c-0.953-1.252-1.915-2.501-2.893-3.738c-0.377-0.478-0.762-0.951-1.143-1.426
			c-0.849-1.058-1.7-2.116-2.566-3.162c-0.528-0.638-1.067-1.269-1.604-1.903c-0.755-0.894-1.507-1.79-2.275-2.675
			c-0.68-0.783-1.374-1.556-2.066-2.332c-0.655-0.737-1.304-1.479-1.97-2.211c-0.878-0.965-1.774-1.917-2.669-2.871
			c-0.506-0.54-1.002-1.086-1.514-1.622c-1.424-1.493-2.867-2.974-4.33-4.437c-1.465-1.465-2.947-2.91-4.442-4.335
			c-0.51-0.486-1.028-0.957-1.541-1.438c-0.982-0.921-1.963-1.844-2.957-2.748c-0.702-0.639-1.416-1.263-2.125-1.895
			c-0.806-0.716-1.609-1.437-2.423-2.143c-0.857-0.745-1.728-1.474-2.594-2.207c-0.661-0.559-1.319-1.121-1.986-1.673
			c-1.023-0.848-2.058-1.68-3.092-2.51c-0.499-0.4-0.996-0.804-1.497-1.2c-1.217-0.962-2.444-1.907-3.676-2.845
			c-0.3-0.228-0.598-0.458-0.897-0.684c-1.444-1.09-2.901-2.162-4.364-3.218c-0.058-0.041-0.113-0.083-0.171-0.123
			C362.037,16.818,310.314,0,256,0C187.619,0,123.332,26.629,74.98,74.981C26.628,123.333,0,187.621,0,256
			c0,54.311,16.814,106.03,47.951,149.242c0.048,0.066,0.096,0.131,0.143,0.197c1.051,1.455,2.116,2.903,3.199,4.338
			c0.233,0.311,0.472,0.618,0.706,0.927c0.931,1.222,1.869,2.44,2.823,3.647c0.404,0.512,0.816,1.02,1.225,1.529
			c0.822,1.024,1.646,2.047,2.484,3.06c0.563,0.68,1.137,1.352,1.708,2.027c0.721,0.853,1.438,1.708,2.171,2.552
			c0.728,0.839,1.471,1.668,2.211,2.497c0.608,0.682,1.207,1.369,1.824,2.047c0.953,1.049,1.927,2.085,2.899,3.12
			c0.43,0.457,0.851,0.921,1.284,1.375c1.431,1.5,2.88,2.989,4.351,4.459c1.473,1.473,2.963,2.924,4.466,4.357
			c0.423,0.403,0.854,0.794,1.28,1.195c1.067,1.004,2.137,2.008,3.219,2.992c0.646,0.588,1.304,1.162,1.956,1.744
			c0.862,0.768,1.723,1.539,2.594,2.296c0.815,0.707,1.641,1.398,2.463,2.095c0.705,0.597,1.408,1.197,2.12,1.787
			c0.985,0.815,1.981,1.617,2.978,2.416c0.538,0.432,1.074,0.867,1.616,1.294c1.181,0.933,2.372,1.85,3.567,2.761
			c0.337,0.257,0.673,0.516,1.012,0.771c1.41,1.064,2.832,2.11,4.261,3.142c0.093,0.067,0.185,0.134,0.277,0.2
			c43.207,31.124,94.913,47.929,149.21,47.929c68.381,0,132.668-26.628,181.02-74.981c48.351-48.351,74.98-112.639,74.98-181.018
			C511.999,201.676,495.176,149.945,464.023,106.725z M362.707,45.445c10.986,5.565,21.486,11.974,31.448,19.183
			c0.159,0.116,0.321,0.232,0.482,0.349c1.048,0.762,2.088,1.535,3.123,2.316c0.406,0.306,0.811,0.616,1.215,0.925
			c0.901,0.688,1.801,1.377,2.692,2.08c0.651,0.513,1.297,1.037,1.944,1.557c1.036,0.832,2.067,1.674,3.089,2.525
			c0.926,0.771,1.851,1.544,2.766,2.33c0.526,0.452,1.047,0.911,1.568,1.367c0.852,0.744,1.7,1.492,2.542,2.25
			c0.505,0.453,1.007,0.909,1.508,1.367c0.895,0.818,1.783,1.646,2.667,2.48c0.424,0.399,0.85,0.795,1.272,1.198
			c1.293,1.237,2.578,2.486,3.848,3.756c1.312,1.311,2.6,2.638,3.873,3.973c0.353,0.37,0.701,0.743,1.051,1.115
			c0.973,1.031,1.936,2.069,2.886,3.113c0.313,0.344,0.625,0.687,0.935,1.032c14.094,15.682,25.704,32.816,34.854,50.888
			c-0.27,0.005-0.542,0.007-0.815,0.007c-0.441,0-0.89-0.014-1.336-0.025c-0.424-0.011-0.849-0.026-1.276-0.047
			c-0.224-0.011-0.448-0.024-0.673-0.038c-0.469-0.029-0.939-0.062-1.412-0.103c-0.177-0.015-0.355-0.032-0.533-0.049
			c-0.529-0.05-1.061-0.106-1.596-0.171c-0.114-0.014-0.228-0.029-0.344-0.044c-0.605-0.077-1.213-0.161-1.824-0.257
			c-0.037-0.006-0.073-0.012-0.11-0.018c-17.157-2.718-36.488-12.697-53.276-27.551c-0.834-0.741-1.668-1.488-2.49-2.255
			c-0.256-0.238-0.51-0.48-0.764-0.721c-1.024-0.967-2.044-1.945-3.049-2.95c-1.003-1.004-1.98-2.022-2.946-3.044
			c-0.067-0.072-0.136-0.144-0.204-0.216c-0.179-0.191-0.359-0.379-0.537-0.57c-0.758-0.814-1.496-1.638-2.231-2.465
			c-17.271-19.517-27.954-42.472-28.298-61.455c-0.005-0.267-0.025-0.53-0.051-0.791C362.705,46.139,362.699,45.789,362.707,45.445z
			 M352.021,85.444c-44.156,23.395-98.052,65.496-149.568,117.011c-51.505,51.506-93.6,105.393-116.998,149.546
			c-9.624-4.357-19.303-7.264-28.651-8.533c-2.976-63.355,30.854-137.977,89.77-196.893c56.318-56.318,127.086-89.94,189.305-89.94
			c2.546,0,5.082,0.059,7.592,0.174C344.745,66.144,347.665,75.822,352.021,85.444z M89.126,89.128
			C133.7,44.555,192.963,20.007,256,20.007c30.444,0,60,5.742,87.455,16.683c-0.006,0.035-0.009,0.07-0.015,0.105
			c-2.507-0.103-5.028-0.166-7.56-0.166c-67.408,0-143.465,35.812-203.452,95.8C69.969,194.888,34.013,274.693,36.78,343.34
			C3.081,258.413,20.52,157.733,89.126,89.128z M149.294,466.56c-10.956-5.55-21.427-11.939-31.364-19.125
			c-0.211-0.152-0.421-0.303-0.63-0.455c-1.009-0.735-2.013-1.48-3.012-2.233c-0.456-0.344-0.91-0.691-1.364-1.039
			c-0.855-0.654-1.711-1.309-2.558-1.976c-0.774-0.609-1.541-1.229-2.309-1.849c-0.848-0.685-1.693-1.373-2.532-2.07
			c-1.016-0.843-2.028-1.692-3.032-2.553c-0.486-0.418-0.968-0.843-1.451-1.265c-0.894-0.781-1.785-1.566-2.669-2.362
			c-0.473-0.425-0.943-0.853-1.413-1.281c-0.936-0.855-1.865-1.721-2.789-2.593c-0.389-0.366-0.779-0.729-1.166-1.099
			c-1.303-1.246-2.599-2.506-3.878-3.785c-1.319-1.319-2.616-2.655-3.897-3.998c-0.33-0.346-0.655-0.695-0.982-1.042
			c-1-1.06-1.989-2.126-2.965-3.2c-0.292-0.321-0.585-0.642-0.874-0.964c-14.106-15.69-25.725-32.833-34.88-50.915
			c0.609-0.009,1.222-0.006,1.84,0.006c0.319,0.006,0.644,0.023,0.965,0.035c0.357,0.014,0.713,0.024,1.073,0.044
			c0.304,0.018,0.61,0.044,0.916,0.067c0.376,0.028,0.751,0.053,1.13,0.088c0.326,0.03,0.655,0.07,0.983,0.106
			c0.357,0.039,0.714,0.076,1.073,0.122c0.366,0.046,0.734,0.102,1.103,0.155c0.322,0.047,0.643,0.091,0.966,0.143
			c0.421,0.067,0.845,0.144,1.268,0.22c0.268,0.048,0.534,0.093,0.803,0.145c0.485,0.093,0.973,0.195,1.461,0.3
			c0.206,0.044,0.412,0.086,0.619,0.132c0.55,0.122,1.101,0.254,1.654,0.39c0.145,0.036,0.289,0.069,0.434,0.106
			c0.614,0.155,1.23,0.319,1.85,0.492c0.081,0.023,0.161,0.044,0.242,0.067c0.681,0.191,1.362,0.393,2.048,0.604
			c0.016,0.005,0.031,0.01,0.047,0.015c13.655,4.236,28.03,12.446,41.007,23.56c0.073,0.064,0.146,0.128,0.22,0.191
			c0.506,0.435,1.009,0.876,1.51,1.319c0.818,0.727,1.635,1.459,2.442,2.21c0.268,0.249,0.533,0.503,0.8,0.754
			c0.007,0.007,0.015,0.015,0.022,0.022c1.002,0.947,2.001,1.904,2.984,2.887c0.013,0.013,0.025,0.025,0.038,0.038
			s0.024,0.025,0.037,0.038c0.98,0.982,1.937,1.978,2.882,2.978c0.133,0.141,0.266,0.281,0.397,0.421
			c0.126,0.134,0.254,0.267,0.379,0.402c0.751,0.808,1.483,1.625,2.213,2.444c17.276,19.519,27.965,42.479,28.309,61.466
			c0.005,0.267,0.026,0.53,0.052,0.791C149.296,465.864,149.302,466.215,149.294,466.56z M149.312,407.374
			c-0.193-0.292-0.385-0.584-0.58-0.875c-0.441-0.656-0.889-1.309-1.342-1.961c-0.105-0.151-0.213-0.302-0.318-0.453
			c-0.93-1.326-1.884-2.643-2.863-3.948c-0.065-0.087-0.13-0.176-0.196-0.263c-0.519-0.688-1.043-1.373-1.576-2.057
			c-0.103-0.131-0.206-0.261-0.309-0.392c-0.894-1.138-1.808-2.269-2.739-3.39c-0.263-0.316-0.523-0.633-0.789-0.948
			c-0.434-0.514-0.87-1.026-1.311-1.536c-0.482-0.558-0.972-1.112-1.464-1.667c-0.419-0.471-0.839-0.94-1.265-1.408
			c-0.645-0.708-1.296-1.412-1.956-2.113c-0.165-0.174-0.325-0.352-0.491-0.525c-0.106-0.112-0.218-0.223-0.325-0.335
			c-0.859-0.898-1.727-1.793-2.61-2.677c-0.732-0.733-1.472-1.456-2.216-2.172c-0.185-0.178-0.371-0.353-0.557-0.53
			c-0.253-0.242-0.507-0.481-0.761-0.721c-0.301-0.283-0.602-0.567-0.903-0.848c-0.363-0.337-0.729-0.67-1.096-1.003
			c-0.044-0.04-0.088-0.081-0.132-0.121c-0.358-0.327-0.718-0.652-1.078-0.975c-0.397-0.354-0.795-0.704-1.193-1.054
			c-0.263-0.23-0.525-0.46-0.79-0.688c-0.313-0.271-0.622-0.545-0.937-0.813c-0.219-0.186-0.441-0.367-0.661-0.552
			c-0.199-0.168-0.399-0.334-0.6-0.5c-0.46-0.384-0.919-0.771-1.382-1.148c-0.453-0.37-0.911-0.731-1.367-1.095
			c-0.534-0.426-1.069-0.85-1.607-1.268c-0.448-0.348-0.897-0.693-1.348-1.035c-0.653-0.496-1.309-0.982-1.966-1.465
			c-0.321-0.235-0.641-0.476-0.963-0.708c-1.03-0.744-2.065-1.471-3.104-2.184c-0.091-0.062-0.182-0.122-0.272-0.184
			c-1.048-0.715-2.102-1.411-3.157-2.094c-0.028-0.018-0.056-0.037-0.083-0.055c22.414-42.437,63.316-94.723,113.601-145.009
			c50.286-50.286,102.572-91.189,145.01-113.602c0.354,0.55,0.725,1.093,1.087,1.641c0.189,0.286,0.377,0.573,0.569,0.858
			c0.441,0.657,0.89,1.312,1.343,1.965c0.105,0.151,0.213,0.301,0.318,0.452c0.933,1.33,1.89,2.651,2.872,3.96
			c0.062,0.082,0.122,0.165,0.184,0.247c0.522,0.692,1.049,1.38,1.583,2.067c0.097,0.124,0.195,0.246,0.292,0.37
			c0.902,1.15,1.825,2.292,2.766,3.424c0.256,0.308,0.51,0.616,0.768,0.923c0.439,0.52,0.881,1.038,1.327,1.553
			c0.47,0.543,0.946,1.083,1.426,1.622c0.437,0.492,0.875,0.982,1.319,1.469c0.632,0.694,1.271,1.385,1.918,2.072
			c0.169,0.179,0.334,0.361,0.504,0.54c0.111,0.117,0.228,0.232,0.34,0.349c0.834,0.873,1.678,1.742,2.536,2.602
			c0.02,0.02,0.039,0.041,0.06,0.061c0.067,0.067,0.136,0.131,0.202,0.198c0.662,0.66,1.328,1.314,2,1.96
			c0.192,0.185,0.386,0.367,0.578,0.551c0.252,0.24,0.505,0.478,0.757,0.716c0.296,0.278,0.591,0.558,0.888,0.834
			c0.375,0.348,0.752,0.69,1.128,1.034c0.039,0.036,0.078,0.072,0.117,0.107c0.353,0.322,0.707,0.642,1.063,0.96
			c0.403,0.361,0.809,0.717,1.215,1.073c0.261,0.228,0.521,0.455,0.782,0.681c0.309,0.268,0.616,0.539,0.927,0.804
			c0.224,0.191,0.45,0.375,0.675,0.564c0.191,0.161,0.384,0.32,0.576,0.48c0.468,0.392,0.936,0.785,1.407,1.169
			c0.443,0.361,0.891,0.715,1.337,1.071c0.544,0.435,1.09,0.866,1.639,1.292c0.443,0.344,0.888,0.686,1.334,1.024
			c0.655,0.498,1.314,0.987,1.975,1.472c0.319,0.234,0.637,0.473,0.957,0.704c1.029,0.744,2.065,1.471,3.103,2.184
			c0.094,0.064,0.189,0.127,0.282,0.19c1.043,0.712,2.092,1.405,3.144,2.084c0.026,0.021,0.055,0.042,0.086,0.061
			c-22.415,42.439-63.318,94.726-113.602,145.009c-50.284,50.285-102.57,91.188-145.009,113.601
			C150.038,408.456,149.67,407.918,149.312,407.374z M159.977,426.557c44.158-23.396,98.054-65.497,149.568-117.011
			c51.505-51.504,93.599-105.392,116.999-149.547c9.624,4.357,19.303,7.264,28.651,8.533
			c2.976,63.356-30.853,137.978-89.771,196.894c-56.318,56.317-127.085,89.94-189.304,89.94c-2.546,0-5.083-0.059-7.593-0.174
			C167.253,445.856,164.333,436.177,159.977,426.557z M422.872,422.873c-44.573,44.574-103.837,69.122-166.873,69.122
			c-30.444,0-60-5.742-87.455-16.684c0.006-0.035,0.01-0.07,0.015-0.105c2.508,0.103,5.029,0.167,7.561,0.167
			c67.407,0,143.463-35.813,203.451-95.799c62.458-62.459,98.415-142.264,95.647-210.91
			C508.917,253.59,491.476,354.269,422.872,422.873z"/>
	</g>
</g>
<g>
	<g>
		<path d="M175.286,60.628c-2.349-5.002-8.304-7.153-13.306-4.804c-16.155,7.584-31.379,17.13-45.247,28.373
			c-4.291,3.479-4.951,9.778-1.472,14.069c1.977,2.439,4.865,3.704,7.776,3.704c2.213,0,4.44-0.731,6.293-2.233
			c12.613-10.225,26.459-18.907,41.153-25.805C175.483,71.585,177.634,65.628,175.286,60.628z"/>
	</g>
</g>
<g>
	<g>
		<path d="M109.646,103.452c-4.011-3.796-10.347-3.616-14.147,0.396l-0.154,0.164c-3.775,4.033-3.567,10.363,0.466,14.138
			c1.929,1.808,4.383,2.702,6.833,2.702c2.671,0,5.336-1.063,7.304-3.167l0.094-0.099
			C113.839,113.573,113.658,107.249,109.646,103.452z"/>
	</g>
</g>
<g>
	<g>
		<path d="M395.378,414.483c-3.447-4.316-9.741-5.021-14.058-1.574c-12.685,10.13-26.593,18.711-41.338,25.503
			c-5.019,2.312-7.212,8.253-4.901,13.27c1.687,3.663,5.309,5.821,9.092,5.821c1.4,0,2.824-0.296,4.179-0.92
			c16.213-7.467,31.505-16.902,45.452-28.041C398.121,425.093,398.827,418.799,395.378,414.483z"/>
	</g>
</g>
<g>
	<g>
		<path d="M414.941,394.677c-4.029-3.776-10.345-3.589-14.125,0.442c-0.002,0.002-0.087,0.09-0.088,0.092
			c-3.816,3.985-3.662,10.285,0.316,14.107c1.934,1.858,4.426,2.779,6.917,2.779c2.635,0,5.268-1.03,7.235-3.072l0.185-0.194
			C419.161,404.802,418.972,398.456,414.941,394.677z"/>
	</g>
</g>
<g>
</g>
<g>
</g>
<g>
</g>
<g>
</g>
<g>
</g>
<g>
</g>
<g>
</g>
<g>
</g>
<g>
</g>
<g>
</g>
<g>
</g>
<g>
</g>
<g>
</g>
<g>
</g>
<g>
</g>
</svg>
